# xmcd
#
# Track frame offsets:
#	150
#	20973
#	39096
#	64284
#	79112
#	92631
#	110729
#	126799
#	146942
#	166689
#	187937
#	213738
#	232931
#	253728
#
# Disc length: 3651 seconds
#
# Revision: 1
# Processed by: cddbd v1.5.2PL0 Copyright (c) Steve Scherf et al.
# Submitted via: audiograbber 1.83.01
#
DISCID=c40e410e
DTITLE=Diverse - Egyptian Hits
DYEAR=2006
DGENRE=Folklore
TTITLE0=Diab - Nafs El Makan
TTITLE1=Ehab - Asmak Aeh
TTITLE2=Mouner - Shamndora
TTITLE3=Mouner - Be El Haz
TTITLE4=Mouner - So Ya So
TTITLE5=Mouner - El Elala
TTITLE6=Hakim - Lela
TTITLE7=Sherin - Aeh Aeh
TTITLE8=Hakim - Aeh Da
TTITLE9=Diab - Tamaly Maak
TTITLE10=Ahmed Mounib - El Waad We El Maktob
TTITLE11=Div -  Track12
TTITLE12=Div -  Track13
TTITLE13=Div -  Track14
EXTD=
EXTT0=
EXTT1=
EXTT2=
EXTT3=
EXTT4=
EXTT5=
EXTT6=
EXTT7=
EXTT8=
EXTT9=
EXTT10=
EXTT11=
EXTT12=
EXTT13=
PLAYORDER=
